<svg width="30" height="31" viewBox="0 0 30 31" fill="none" xmlns="http://www.w3.org/2000/svg"><path d="M9.49096 26.9697C19.6797 26.9697 25.2525 18.5049 25.2525 11.1643C25.2525 10.9239 25.2525 10.6845 25.2363 10.4463C26.3204 9.65992 27.2563 8.68626 28 7.57089C26.9891 8.02034 25.9165 8.31496 24.8183 8.44488C25.9748 7.75073 26.8403 6.6588 27.2537 5.37239C26.1664 6.0195 24.9767 6.47551 23.7362 6.72073C22.901 5.83016 21.7963 5.24044 20.5932 5.04284C19.3901 4.84524 18.1556 5.05077 17.0807 5.62763C16.0058 6.20449 15.1505 7.12051 14.6471 8.23395C14.1437 9.34739 14.0202 10.5962 14.2959 11.787C12.0935 11.6763 9.93898 11.1023 7.97214 10.1024C6.0053 9.10256 4.27011 7.69912 2.8792 5.98321C2.17082 7.2061 1.95386 8.65375 2.27249 10.0314C2.59112 11.4091 3.42138 12.6132 4.59424 13.3986C3.71264 13.3727 2.85023 13.1342 2.08 12.7033V12.7737C2.08035 14.0562 2.52308 15.2991 3.3331 16.2916C4.14313 17.2841 5.27057 17.9651 6.5242 18.219C5.70867 18.4421 4.85298 18.4747 4.02292 18.3143C4.37704 19.418 5.06623 20.3831 5.99414 21.0748C6.92206 21.7665 8.0423 22.1501 9.19828 22.172C8.04974 23.0773 6.73448 23.7466 5.32773 24.1417C3.92099 24.5368 2.45037 24.6499 1 24.4745C3.53331 26.1046 6.48091 26.9694 9.49096 26.9654" stroke="#0D0C22" stroke-width="1.5" stroke-linejoin="round"></path></svg>