<svg width="32" height="33" viewBox="0 0 32 33" fill="none" xmlns="http://www.w3.org/2000/svg"><path d="M30.372 9.26956C30.21 8.62242 29.8801 8.02949 29.4157 7.55065C28.9512 7.07182 28.3686 6.72403 27.7267 6.54242C25.3813 5.96973 16 5.96973 16 5.96973C16 5.96973 6.61867 5.96973 4.27334 6.59697C3.63143 6.77857 3.04882 7.12636 2.58435 7.6052C2.11988 8.08403 1.79 8.67696 1.62802 9.3241C1.19879 11.7043 0.988829 14.1188 1.00078 16.5374C0.985479 18.9741 1.19545 21.4071 1.62802 23.8052C1.80659 24.4322 2.14387 25.0026 2.60726 25.4612C3.07065 25.9198 3.64449 26.2511 4.27334 26.4232C6.61867 27.0505 16 27.0504 16 27.0504C16 27.0504 25.3813 27.0505 27.7267 26.4232C28.3686 26.2416 28.9512 25.8938 29.4157 25.415C29.8801 24.9361 30.21 24.3432 30.372 23.6961C30.7979 21.3338 31.0078 18.9377 30.9992 16.5374C31.0145 14.1006 30.8046 11.6677 30.372 9.26956V9.26956Z" stroke="#0D0C22" stroke-width="1.5" stroke-linecap="round" stroke-linejoin="round"></path> <path d="M12.9316 20.9971L20.7721 16.5382L12.9316 12.0793V20.9971Z" stroke="#0D0C22" stroke-width="1.5" stroke-linecap="round" stroke-linejoin="round"></path></svg>